<svg xmlns="http://www.w3.org/2000/svg" viewBox="0 0 400 500" fill="none">
  <!-- Official Stylized Vitoria-Gasteiz Brand Shield Logo (Crisp Vector SVG) -->
  
  <g stroke="#007a54" stroke-width="12" stroke-linecap="round" stroke-linejoin="round">
    <!-- 1. The Crown (Corona) -->
    <!-- The Arch -->
    <path d="M 90 120 C 130 90 270 90 310 120" />
    <!-- Five Leaf Droplets -->
    <circle cx="95" cy="80" r="10" fill="#007a54" stroke="none" />
    <circle cx="150" cy="62" r="10" fill="#007a54" stroke="none" />
    <circle cx="200" cy="55" r="10" fill="#007a54" stroke="none" />
    <circle cx="250" cy="62" r="10" fill="#007a54" stroke="none" />
    <circle cx="305" cy="80" r="10" fill="#007a54" stroke="none" />

    <!-- 2. Symmetrical Wings/Banners branching from the top of the tower -->
    <path d="M 160 145 C 130 140 100 130 90 145 C 80 160 110 165 130 170 C 120 180 105 190 125 195 L 170 175" />
    <path d="M 240 145 C 270 140 300 130 310 145 C 320 160 290 165 270 170 C 280 180 295 190 275 195 L 230 175" />

    <!-- 3. The Castle Tower Body (Torreón) -->
    <!-- Center structure: battlements and vertical walls -->
    <path d="M 175 160 L 175 145 C 175 138 185 135 200 135 C 215 135 225 138 225 145 L 225 160" />
    <path d="M 175 160 L 130 170 C 120 172 110 185 110 205 L 130 330 C 132 342 142 350 155 350" />
    <path d="M 225 160 L 270 170 C 280 172 290 185 290 205 L 270 330 C 268 342 258 350 245 350" />
    
    <!-- Central Gateway (Arco de Entrada) -->
    <path d="M 175 350 L 175 285 C 175 255 225 255 225 285 L 225 350" />

    <!-- 4. Decorative Scrollwork / Waves at the bottom (Adornos de la base) -->
    <!-- Symmetrical flowing waves -->
    <path d="M 130 375 C 90 375 75 330 90 350 C 110 380 150 410 200 415" />
    <path d="M 270 375 C 310 375 325 330 310 350 C 290 380 250 410 200 415" />
    <path d="M 200 415 C 200 415 170 435 155 450 C 145 460 120 460 120 445 C 120 430 150 435 160 415" />
    <path d="M 200 415 C 200 415 230 435 245 450 C 255 460 280 460 280 445 C 280 430 250 435 240 415" />
    <path d="M 155 450 C 135 470 115 480 100 480 C 85 480 80 465 95 455" />
    <path d="M 245 450 C 265 470 285 480 300 480 C 315 480 320 465 305 455" />
  </g>
</svg>